<svg width="322" height="90" viewBox="0 0 322 90" fill="none" xmlns="http://www.w3.org/2000/svg">
<g filter="url(#filter0_dd_4633_21000)">
<rect width="286" height="54" transform="translate(18 16)" fill="#4362D0"/>
<path d="M54.5 36.3281V50.3281H53.0781V43.1562H51.2812V49.6094H49.8906V36.6094H51.2812V41.9375H53.0781V36.3281H54.5ZM43.1719 46.7656V37.9844H44.6562V45.4609C45.9453 45.4453 47.3594 45.3438 48.9531 45.0312L49.1094 46.3281C47.1875 46.6719 45.5859 46.7734 44.0781 46.7656H43.1719ZM67.25 36.3281V41.9062H69.4219V43.1406H67.25V50.3125H65.7656V36.3281H67.25ZM56.3594 46.5781C59.8672 44.8281 61.7734 42.2969 62.0781 39.0312H57.0625V37.7969H63.5938C63.5781 41.8438 61.7969 45.4609 57.1875 47.7344L56.3594 46.5781ZM85.2188 37.2031V38.4375C85.2188 39.7656 85.2188 41.2109 84.8281 43.2031H86.8438V44.4219H81.1719V50.3438H79.6719V44.4219H74.0781V43.2031H83.3281C83.7422 41.2031 83.7422 39.7422 83.75 38.4375V38.4219H75.6406V37.2031H85.2188ZM100.672 43.2344V44.4375H87.9062V43.2344H93.5469V41.7031H89.5V36.8906H99.1094V38.0781H90.9844V40.4844H99.25V41.7031H95.0312V43.2344H100.672ZM89.3281 46.875V45.6719H99.125V50.4062H97.6562V46.875H89.3281ZM112.734 36.3438V40.8438H114.766V42.0781H112.734V46.8125H111.25V36.3438H112.734ZM101.75 39.1719V37.9688H105.188V36.3281H106.672V37.9688H110.094V39.1719H101.75ZM102.516 42.4844C102.508 40.8828 103.891 39.8359 105.922 39.8438C107.93 39.8359 109.312 40.8828 109.312 42.4844C109.312 44.0703 107.93 45.1016 105.922 45.1094C103.891 45.1016 102.508 44.0703 102.516 42.4844ZM103.859 50.0312V45.9844H105.344V48.8281H113.328V50.0312H103.859ZM103.953 42.4844C103.938 43.3984 104.734 43.9609 105.922 43.9531C107.109 43.9609 107.906 43.3984 107.922 42.4844C107.906 41.5625 107.109 40.9922 105.922 40.9844C104.734 40.9922 103.938 41.5625 103.953 42.4844ZM131.141 36.3438V46.625H129.656V41.375H126.922C126.609 43.0547 125.156 44.2031 123.344 44.2031C121.234 44.2031 119.664 42.7422 119.672 40.7031C119.664 38.6562 121.234 37.2188 123.344 37.2188C125.203 37.2188 126.68 38.4062 126.945 40.1562H129.656V36.3438H131.141ZM121.094 40.7031C121.086 42.0156 122.055 42.9141 123.344 42.9219C124.602 42.9141 125.562 42.0156 125.562 40.7031C125.562 39.3906 124.602 38.5234 123.344 38.5156C122.055 38.5234 121.086 39.3906 121.094 40.7031ZM122.047 50.0312V45.5781H123.531V48.8281H131.516V50.0312H122.047ZM146.094 44.2344V45.4531H133.281V44.2344H138.953V42.8438H134.922V39.2656H143V37.9062H134.891V36.7344H144.484V40.3438H136.391V41.7031H144.766V42.8438H140.422V44.2344H146.094ZM134.953 50.25V46.3125H136.438V49.0469H144.781V50.25H134.953ZM151.984 39.8906C151.969 42.3672 153.414 44.9062 155.5 45.9219L154.578 47.1094C153.055 46.3125 151.875 44.75 151.258 42.8828C150.633 44.8672 149.406 46.5469 147.812 47.375L146.891 46.1719C149.039 45.1406 150.492 42.4531 150.5 39.8906V37.5H151.984V39.8906ZM156.547 50.3281V36.3281H158.031V41.9062H160.281V43.1719H158.031V50.3281H156.547ZM173 36.3281V50.3281H171.578V36.3281H173ZM161.109 42.375C161.109 39.3438 162.297 37.4453 164.125 37.4531C165.828 37.4453 166.977 39.0625 167.148 41.6875H168.734V36.5938H170.156V49.6406H168.734V42.8906H167.156C167.023 45.625 165.859 47.3203 164.125 47.3125C162.297 47.3203 161.109 45.4141 161.109 42.375ZM162.484 42.375C162.484 44.6016 163.117 45.9141 164.125 45.9062C165.156 45.9141 165.797 44.6016 165.797 42.375C165.797 40.1406 165.156 38.8359 164.125 38.8438C163.117 38.8359 162.484 40.1406 162.484 42.375ZM191.453 44.7656V45.9844H185.797V50.3438H184.328V45.9844H178.688V44.7656H191.453ZM179.438 42.6094C182.094 42.2734 184.234 40.7891 184.328 39.2188H179.891V38.0156H184.328V36.3281H185.797V38.0156H190.234V39.2188H185.812C185.891 40.7734 188.008 42.2734 190.672 42.6094L190.141 43.7969C187.891 43.4844 185.977 42.4297 185.07 41C184.164 42.4453 182.242 43.4844 179.984 43.7969L179.438 42.6094ZM203.422 36.3281V41.9062H205.594V43.1406H203.422V50.3125H201.938V36.3281H203.422ZM192.531 46.5781C196.039 44.8281 197.945 42.2969 198.25 39.0312H193.234V37.7969H199.766C199.75 41.8438 197.969 45.4609 193.359 47.7344L192.531 46.5781ZM214.688 42.25V43.4688H211.734V46.0625C213.031 46.0078 214.336 45.9219 215.562 45.7812L215.672 46.875C212.586 47.3359 209.273 47.3828 206.609 47.3906L206.422 46.1562C207.602 46.1562 208.906 46.1484 210.25 46.1172V43.4688H207.438V37.625H214.625V38.8281H208.906V42.25H214.688ZM216.438 50.3594V36.3281H217.922V50.3594H216.438ZM225.141 45.5625C225.141 46.7734 225.742 48.0469 227.008 48.8203C228.289 47.9844 228.898 46.625 228.906 45.5625V44.8125H230.359V45.5625C230.359 47.0078 231.312 48.4453 233.172 49.0312L232.406 50.1406C231.031 49.6484 230.094 48.7109 229.609 47.5547C229.164 48.6797 228.328 49.7266 227.031 50.2656C225.703 49.7578 224.852 48.7656 224.414 47.6172C223.914 48.7188 222.984 49.6484 221.672 50.1406L220.953 49.0312C222.742 48.4062 223.703 46.9219 223.719 45.5625V44.8125H225.141V45.5625ZM220.391 40.4062C220.383 38.4688 221.938 37.0938 224.047 37.0938C225.859 37.0938 227.297 38.1641 227.617 39.75H230.359V36.3281H231.844V44.2656H230.359V40.9688H227.641C227.352 42.5938 225.898 43.7031 224.047 43.7031C221.938 43.7031 220.383 42.3359 220.391 40.4062ZM221.812 40.4062C221.805 41.6172 222.75 42.4688 224.047 42.4688C225.312 42.4688 226.258 41.6172 226.266 40.4062C226.258 39.1719 225.312 38.3359 224.047 38.3438C222.75 38.3359 221.805 39.1719 221.812 40.4062ZM237.047 44.7188V46.2031H243.625V44.7188H245.109V50.1562H235.578V44.7188H237.047ZM234 43.8438V42.6094H246.766V43.8438H234ZM234.688 40.5781C237.398 40.2266 239.617 38.7344 239.625 37.0781V36.4844H241.141V37.0781C241.148 38.6875 243.383 40.25 246.062 40.5781L245.531 41.75C243.266 41.4375 241.289 40.3594 240.391 38.8672C239.484 40.3672 237.5 41.4375 235.25 41.75L234.688 40.5781ZM237.047 48.9688H243.625V47.3594H237.047V48.9688ZM259.453 36.3281V50.3281H257.969V36.3281H259.453ZM248.688 46.7656V37.6875H250.156V45.4844C252.203 45.4766 254.352 45.2969 256.594 44.8438L256.797 46.0938C254.32 46.6016 252.07 46.7734 249.859 46.7656H248.688ZM272.562 36.3281V41.75H274.812V42.9688H272.562V50.3594H271.078V36.3281H272.562ZM262.25 46.875V37.6719H268.797V38.875H263.734V45.6406C266.086 45.6328 267.844 45.5312 269.844 45.1719L270.031 46.4219C267.836 46.8125 265.977 46.8828 263.375 46.875H262.25ZM277.078 49.1094C276.469 49.1016 275.961 48.6094 275.969 48C275.961 47.3906 276.469 46.8906 277.078 46.8906C277.68 46.8906 278.18 47.3906 278.188 48C278.18 48.6094 277.68 49.1016 277.078 49.1094Z" fill="white"/>
</g>
<defs>
<filter id="filter0_dd_4633_21000" x="0" y="0" width="322" height="90" filterUnits="userSpaceOnUse" color-interpolation-filters="sRGB">
<feFlood flood-opacity="0" result="BackgroundImageFix"/>
<feColorMatrix in="SourceAlpha" type="matrix" values="0 0 0 0 0 0 0 0 0 0 0 0 0 0 0 0 0 0 127 0" result="hardAlpha"/>
<feOffset dy="2"/>
<feGaussianBlur stdDeviation="9"/>
<feComposite in2="hardAlpha" operator="out"/>
<feColorMatrix type="matrix" values="0 0 0 0 0.0784314 0 0 0 0 0.130745 0 0 0 0 0.168627 0 0 0 0.08 0"/>
<feBlend mode="normal" in2="BackgroundImageFix" result="effect1_dropShadow_4633_21000"/>
<feColorMatrix in="SourceAlpha" type="matrix" values="0 0 0 0 0 0 0 0 0 0 0 0 0 0 0 0 0 0 127 0" result="hardAlpha"/>
<feOffset dy="4"/>
<feGaussianBlur stdDeviation="1"/>
<feComposite in2="hardAlpha" operator="out"/>
<feColorMatrix type="matrix" values="0 0 0 0 0.0784314 0 0 0 0 0.129412 0 0 0 0 0.168627 0 0 0 0.02 0"/>
<feBlend mode="normal" in2="effect1_dropShadow_4633_21000" result="effect2_dropShadow_4633_21000"/>
<feBlend mode="normal" in="SourceGraphic" in2="effect2_dropShadow_4633_21000" result="shape"/>
</filter>
</defs>
</svg>
