<svg width="72" height="24" viewBox="0 0 72 24" fill="none" xmlns="http://www.w3.org/2000/svg">
<rect x="0.5" y="0.5" width="71" height="23" rx="11.5" fill="#F5F7F9"/>
<path d="M15.5 12.499H12.5V15.499H11.5V12.499H8.5V11.499H11.5V8.49902H12.5V11.499H15.5V12.499Z" fill="#4B5966"/>
<path d="M25.5781 8.23047V9.13281H20.3633V8.23047H22.4258V6.80078H23.5273V8.23047H25.5781ZM20.7031 12.1797C20.6973 10.7676 21.6582 9.76562 22.9766 9.76562C24.3066 9.76562 25.2559 10.7676 25.2617 12.1797C25.2559 13.6152 24.3066 14.623 22.9766 14.6172C21.6582 14.623 20.6973 13.6152 20.7031 12.1797ZM21.6875 12.1797C21.6816 13.0703 22.2207 13.668 22.9766 13.668C23.7324 13.668 24.2773 13.0703 24.2773 12.1797C24.2773 11.3066 23.7324 10.6973 22.9766 10.6914C22.2207 10.6973 21.6816 11.3066 21.6875 12.1797ZM26.0586 16.5039V6.73047H27.1133V10.8672H28.3203V6.49609H29.375V16.9961H28.3203V11.7812H27.1133V16.5039H26.0586ZM34.625 9.58984C34.6191 11.3477 35.7734 13.1641 37.3906 13.8555L36.7812 14.7227C35.5449 14.1777 34.5605 13.0176 34.0742 11.6172C33.5879 13.1172 32.6035 14.3945 31.3789 14.9922L30.7344 14.1133C32.3164 13.3691 33.4883 11.4004 33.5 9.58984V8.47656H31.0977V7.55078H37.0156V8.47656H34.625V9.58984ZM38.3398 16.9961V6.49609H39.4531V16.9961H38.3398ZM49.3086 6.49609V10.75H50.9961V11.6758H49.3086V16.9961H48.207V6.49609H49.3086ZM41.0703 9.05078V8.13672H43.6602V6.63672H44.7734V8.13672H47.293V9.05078H41.0703ZM41.6094 12.2617C41.6094 10.832 42.7109 9.82422 44.2227 9.82422C45.7285 9.82422 46.8301 10.832 46.8359 12.2617C46.8301 13.7031 45.7285 14.7051 44.2227 14.7109C42.7109 14.7051 41.6094 13.7031 41.6094 12.2617ZM42.6758 12.2617C42.6699 13.1758 43.3262 13.7852 44.2227 13.7734C45.1133 13.7852 45.7637 13.1758 45.7695 12.2617C45.7637 11.3652 45.1133 10.7441 44.2227 10.7383C43.3262 10.7441 42.6699 11.3652 42.6758 12.2617ZM60.2305 6.49609V16.9961H59.1055V6.49609H60.2305ZM51.6055 14.1836C54.3945 12.8535 55.7598 10.9609 55.9766 8.51172H52.1094V7.62109H57.1016C57.1016 10.6973 55.7949 13.3574 52.1914 15.0859L51.6055 14.1836Z" fill="#4B5966"/>
<rect x="0.5" y="0.5" width="71" height="23" rx="11.5" stroke="#6E8091"/>
</svg>
