<svg width="73" height="24" viewBox="0 0 73 24" fill="none" xmlns="http://www.w3.org/2000/svg">
<rect x="1.16699" y="0.5" width="71" height="23" rx="11.5" fill="#F5F7F9"/>
<path d="M10.267 15L9.66699 14.4L12.067 12L9.66699 9.6L10.267 9L12.667 11.4L15.067 9L15.667 9.6L13.267 12L15.667 14.4L15.067 15L12.667 12.6L10.267 15Z" fill="#879298"/>
<path d="M26.2451 8.23047V9.13281H21.0303V8.23047H23.0928V6.80078H24.1943V8.23047H26.2451ZM21.3701 12.1797C21.3643 10.7676 22.3252 9.76562 23.6436 9.76562C24.9736 9.76562 25.9229 10.7676 25.9287 12.1797C25.9229 13.6152 24.9736 14.623 23.6436 14.6172C22.3252 14.623 21.3643 13.6152 21.3701 12.1797ZM22.3545 12.1797C22.3486 13.0703 22.8877 13.668 23.6436 13.668C24.3994 13.668 24.9443 13.0703 24.9443 12.1797C24.9443 11.3066 24.3994 10.6973 23.6436 10.6914C22.8877 10.6973 22.3486 11.3066 22.3545 12.1797ZM26.7256 16.5039V6.73047H27.7803V10.8672H28.9873V6.49609H30.042V16.9961H28.9873V11.7812H27.7803V16.5039H26.7256ZM35.292 9.58984C35.2861 11.3477 36.4404 13.1641 38.0576 13.8555L37.4482 14.7227C36.2119 14.1777 35.2275 13.0176 34.7412 11.6172C34.2549 13.1172 33.2705 14.3945 32.0459 14.9922L31.4014 14.1133C32.9834 13.3691 34.1553 11.4004 34.167 9.58984V8.47656H31.7646V7.55078H37.6826V8.47656H35.292V9.58984ZM39.0068 16.9961V6.49609H40.1201V16.9961H39.0068ZM49.9756 6.49609V10.75H51.6631V11.6758H49.9756V16.9961H48.874V6.49609H49.9756ZM41.7373 9.05078V8.13672H44.3271V6.63672H45.4404V8.13672H47.96V9.05078H41.7373ZM42.2764 12.2617C42.2764 10.832 43.3779 9.82422 44.8896 9.82422C46.3955 9.82422 47.4971 10.832 47.5029 12.2617C47.4971 13.7031 46.3955 14.7051 44.8896 14.7109C43.3779 14.7051 42.2764 13.7031 42.2764 12.2617ZM43.3428 12.2617C43.3369 13.1758 43.9932 13.7852 44.8896 13.7734C45.7803 13.7852 46.4307 13.1758 46.4365 12.2617C46.4307 11.3652 45.7803 10.7441 44.8896 10.7383C43.9932 10.7441 43.3369 11.3652 43.3428 12.2617ZM60.8975 6.49609V16.9961H59.7725V6.49609H60.8975ZM52.2725 14.1836C55.0615 12.8535 56.4268 10.9609 56.6436 8.51172H52.7764V7.62109H57.7686C57.7686 10.6973 56.4619 13.3574 52.8584 15.0859L52.2725 14.1836Z" fill="#879298"/>
<rect x="1.16699" y="0.5" width="71" height="23" rx="11.5" stroke="#D2DAE0"/>
</svg>
